<?xml version="1.0" encoding="UTF-8" standalone="no"?>
<!DOCTYPE svg PUBLIC "-//W3C//DTD SVG 1.1//EN"
 "http://www.w3.org/Graphics/SVG/1.1/DTD/svg11.dtd">
<!-- Generated by graphviz version 2.40.1 (0)
 -->
<!-- Title: snakemake_dag Pages: 1 -->
<svg width="206pt" height="476pt"
 viewBox="0.00 0.00 206.00 476.00" xmlns="http://www.w3.org/2000/svg" xmlns:xlink="http://www.w3.org/1999/xlink">
<g id="graph0" class="graph" transform="scale(1 1) rotate(0) translate(4 472)">
<title>snakemake_dag</title>
<polygon fill="#ffffff" stroke="transparent" points="-4,4 -4,-472 202,-472 202,4 -4,4"/>
<!-- 0 -->
<g id="node1" class="node">
<title>0</title>
<path fill="none" stroke="#56d873" stroke-width="2" d="M114,-36C114,-36 84,-36 84,-36 78,-36 72,-30 72,-24 72,-24 72,-12 72,-12 72,-6 78,0 84,0 84,0 114,0 114,0 120,0 126,-6 126,-12 126,-12 126,-24 126,-24 126,-30 120,-36 114,-36"/>
<text text-anchor="middle" x="99" y="-15.5" font-family="sans" font-size="10.00" fill="#000000">all</text>
</g>
<!-- 1 -->
<g id="node2" class="node">
<title>1</title>
<path fill="none" stroke="#56d8a9" stroke-width="2" d="M42,-108C42,-108 12,-108 12,-108 6,-108 0,-102 0,-96 0,-96 0,-84 0,-84 0,-78 6,-72 12,-72 12,-72 42,-72 42,-72 48,-72 54,-78 54,-84 54,-84 54,-96 54,-96 54,-102 48,-108 42,-108"/>
<text text-anchor="middle" x="27" y="-87.5" font-family="sans" font-size="10.00" fill="#000000">prokka</text>
</g>
<!-- 1&#45;&gt;0 -->
<g id="edge3" class="edge">
<title>1&#45;&gt;0</title>
<path fill="none" stroke="#c0c0c0" stroke-width="2" d="M45.1686,-71.8314C53.7152,-63.2848 64.0557,-52.9443 73.3802,-43.6198"/>
<polygon fill="#c0c0c0" stroke="#c0c0c0" stroke-width="2" points="75.9905,-45.9592 80.5867,-36.4133 71.0408,-41.0095 75.9905,-45.9592"/>
</g>
<!-- 2 -->
<g id="node3" class="node">
<title>2</title>
<path fill="none" stroke="#d88d56" stroke-width="2" d="M120.5,-180C120.5,-180 77.5,-180 77.5,-180 71.5,-180 65.5,-174 65.5,-168 65.5,-168 65.5,-156 65.5,-156 65.5,-150 71.5,-144 77.5,-144 77.5,-144 120.5,-144 120.5,-144 126.5,-144 132.5,-150 132.5,-156 132.5,-156 132.5,-168 132.5,-168 132.5,-174 126.5,-180 120.5,-180"/>
<text text-anchor="middle" x="99" y="-159.5" font-family="sans" font-size="10.00" fill="#000000">polypolish</text>
</g>
<!-- 2&#45;&gt;1 -->
<g id="edge4" class="edge">
<title>2&#45;&gt;1</title>
<path fill="none" stroke="#c0c0c0" stroke-width="2" d="M80.8314,-143.8314C72.2848,-135.2848 61.9443,-124.9443 52.6198,-115.6198"/>
<polygon fill="#c0c0c0" stroke="#c0c0c0" stroke-width="2" points="54.9592,-113.0095 45.4133,-108.4133 50.0095,-117.9592 54.9592,-113.0095"/>
</g>
<!-- 7 -->
<g id="node8" class="node">
<title>7</title>
<path fill="none" stroke="#d8cb56" stroke-width="2" d="M186,-108C186,-108 156,-108 156,-108 150,-108 144,-102 144,-96 144,-96 144,-84 144,-84 144,-78 150,-72 156,-72 156,-72 186,-72 186,-72 192,-72 198,-78 198,-84 198,-84 198,-96 198,-96 198,-102 192,-108 186,-108"/>
<text text-anchor="middle" x="171" y="-87.5" font-family="sans" font-size="10.00" fill="#000000">quast</text>
</g>
<!-- 2&#45;&gt;7 -->
<g id="edge12" class="edge">
<title>2&#45;&gt;7</title>
<path fill="none" stroke="#c0c0c0" stroke-width="2" d="M117.1686,-143.8314C125.7152,-135.2848 136.0557,-124.9443 145.3802,-115.6198"/>
<polygon fill="#c0c0c0" stroke="#c0c0c0" stroke-width="2" points="147.9905,-117.9592 152.5867,-108.4133 143.0408,-113.0095 147.9905,-117.9592"/>
</g>
<!-- 8 -->
<g id="node9" class="node">
<title>8</title>
<path fill="none" stroke="#56c9d8" stroke-width="2" d="M114,-108C114,-108 84,-108 84,-108 78,-108 72,-102 72,-96 72,-96 72,-84 72,-84 72,-78 78,-72 84,-72 84,-72 114,-72 114,-72 120,-72 126,-78 126,-84 126,-84 126,-96 126,-96 126,-102 120,-108 114,-108"/>
<text text-anchor="middle" x="99" y="-87.5" font-family="sans" font-size="10.00" fill="#000000">busco</text>
</g>
<!-- 2&#45;&gt;8 -->
<g id="edge13" class="edge">
<title>2&#45;&gt;8</title>
<path fill="none" stroke="#c0c0c0" stroke-width="2" d="M99,-143.8314C99,-136.131 99,-126.9743 99,-118.4166"/>
<polygon fill="#c0c0c0" stroke="#c0c0c0" stroke-width="2" points="102.5001,-118.4132 99,-108.4133 95.5001,-118.4133 102.5001,-118.4132"/>
</g>
<!-- 3 -->
<g id="node4" class="node">
<title>3</title>
<path fill="none" stroke="#70d856" stroke-width="2" d="M144,-324C144,-324 112,-324 112,-324 106,-324 100,-318 100,-312 100,-312 100,-300 100,-300 100,-294 106,-288 112,-288 112,-288 144,-288 144,-288 150,-288 156,-294 156,-300 156,-300 156,-312 156,-312 156,-318 150,-324 144,-324"/>
<text text-anchor="middle" x="128" y="-303.5" font-family="sans" font-size="10.00" fill="#000000">medaka</text>
</g>
<!-- 3&#45;&gt;2 -->
<g id="edge6" class="edge">
<title>3&#45;&gt;2</title>
<path fill="none" stroke="#c0c0c0" stroke-width="2" d="M99.9068,-289.1088C87.3481,-279.8798 73.8525,-267.2179 67,-252 57.6378,-231.2086 67.5642,-206.788 78.7599,-188.6347"/>
<polygon fill="#c0c0c0" stroke="#c0c0c0" stroke-width="2" points="81.6931,-190.5443 84.279,-180.2699 75.8503,-186.6892 81.6931,-190.5443"/>
</g>
<!-- 6 -->
<g id="node7" class="node">
<title>6</title>
<path fill="none" stroke="#d85656" stroke-width="2" d="M125.5,-252C125.5,-252 88.5,-252 88.5,-252 82.5,-252 76.5,-246 76.5,-240 76.5,-240 76.5,-228 76.5,-228 76.5,-222 82.5,-216 88.5,-216 88.5,-216 125.5,-216 125.5,-216 131.5,-216 137.5,-222 137.5,-228 137.5,-228 137.5,-240 137.5,-240 137.5,-246 131.5,-252 125.5,-252"/>
<text text-anchor="middle" x="107" y="-231.5" font-family="sans" font-size="10.00" fill="#000000">bwaalign</text>
</g>
<!-- 3&#45;&gt;6 -->
<g id="edge9" class="edge">
<title>3&#45;&gt;6</title>
<path fill="none" stroke="#c0c0c0" stroke-width="2" d="M122.7008,-287.8314C120.4302,-280.0463 117.7254,-270.7729 115.206,-262.1347"/>
<polygon fill="#c0c0c0" stroke="#c0c0c0" stroke-width="2" points="118.5306,-261.0332 112.3705,-252.4133 111.8106,-262.9933 118.5306,-261.0332"/>
</g>
<!-- 3&#45;&gt;7 -->
<g id="edge11" class="edge">
<title>3&#45;&gt;7</title>
<path fill="none" stroke="#c0c0c0" stroke-width="2" d="M134.9452,-287.7297C138.6651,-277.3727 143.0713,-264.1021 146,-252 157.1855,-205.7783 164.4206,-150.8712 168.0965,-118.3133"/>
<polygon fill="#c0c0c0" stroke="#c0c0c0" stroke-width="2" points="171.5974,-118.4953 169.2072,-108.1736 164.639,-117.733 171.5974,-118.4953"/>
</g>
<!-- 4 -->
<g id="node5" class="node">
<title>4</title>
<path fill="none" stroke="#afd856" stroke-width="2" d="M184,-396C184,-396 128,-396 128,-396 122,-396 116,-390 116,-384 116,-384 116,-372 116,-372 116,-366 122,-360 128,-360 128,-360 184,-360 184,-360 190,-360 196,-366 196,-372 196,-372 196,-384 196,-384 196,-390 190,-396 184,-396"/>
<text text-anchor="middle" x="156" y="-375.5" font-family="sans" font-size="10.00" fill="#000000">flye_add_circ</text>
</g>
<!-- 4&#45;&gt;3 -->
<g id="edge7" class="edge">
<title>4&#45;&gt;3</title>
<path fill="none" stroke="#c0c0c0" stroke-width="2" d="M148.9344,-359.8314C145.874,-351.9617 142.2221,-342.5712 138.8318,-333.8533"/>
<polygon fill="#c0c0c0" stroke="#c0c0c0" stroke-width="2" points="142.0473,-332.4647 135.1607,-324.4133 135.5232,-335.0019 142.0473,-332.4647"/>
</g>
<!-- 4&#45;&gt;7 -->
<g id="edge10" class="edge">
<title>4&#45;&gt;7</title>
<path fill="none" stroke="#c0c0c0" stroke-width="2" d="M159.4331,-359.826C166.4614,-320.5188 181.4661,-224.6372 177,-144 176.543,-135.7487 175.6961,-126.8207 174.7797,-118.6455"/>
<polygon fill="#c0c0c0" stroke="#c0c0c0" stroke-width="2" points="178.2235,-117.9664 173.5618,-108.4522 171.2729,-118.7968 178.2235,-117.9664"/>
</g>
<!-- 5 -->
<g id="node6" class="node">
<title>5</title>
<path fill="none" stroke="#5692d8" stroke-width="2" d="M171,-468C171,-468 141,-468 141,-468 135,-468 129,-462 129,-456 129,-456 129,-444 129,-444 129,-438 135,-432 141,-432 141,-432 171,-432 171,-432 177,-432 183,-438 183,-444 183,-444 183,-456 183,-456 183,-462 177,-468 171,-468"/>
<text text-anchor="middle" x="156" y="-447.5" font-family="sans" font-size="10.00" fill="#000000">flye</text>
</g>
<!-- 5&#45;&gt;4 -->
<g id="edge8" class="edge">
<title>5&#45;&gt;4</title>
<path fill="none" stroke="#c0c0c0" stroke-width="2" d="M156,-431.8314C156,-424.131 156,-414.9743 156,-406.4166"/>
<polygon fill="#c0c0c0" stroke="#c0c0c0" stroke-width="2" points="159.5001,-406.4132 156,-396.4133 152.5001,-406.4133 159.5001,-406.4132"/>
</g>
<!-- 6&#45;&gt;2 -->
<g id="edge5" class="edge">
<title>6&#45;&gt;2</title>
<path fill="none" stroke="#c0c0c0" stroke-width="2" d="M104.9813,-215.8314C104.1257,-208.131 103.1083,-198.9743 102.1574,-190.4166"/>
<polygon fill="#c0c0c0" stroke="#c0c0c0" stroke-width="2" points="105.6289,-189.9656 101.0459,-180.4133 98.6717,-190.7386 105.6289,-189.9656"/>
</g>
<!-- 7&#45;&gt;0 -->
<g id="edge1" class="edge">
<title>7&#45;&gt;0</title>
<path fill="none" stroke="#c0c0c0" stroke-width="2" d="M152.8314,-71.8314C144.2848,-63.2848 133.9443,-52.9443 124.6198,-43.6198"/>
<polygon fill="#c0c0c0" stroke="#c0c0c0" stroke-width="2" points="126.9592,-41.0095 117.4133,-36.4133 122.0095,-45.9592 126.9592,-41.0095"/>
</g>
<!-- 8&#45;&gt;0 -->
<g id="edge2" class="edge">
<title>8&#45;&gt;0</title>
<path fill="none" stroke="#c0c0c0" stroke-width="2" d="M99,-71.8314C99,-64.131 99,-54.9743 99,-46.4166"/>
<polygon fill="#c0c0c0" stroke="#c0c0c0" stroke-width="2" points="102.5001,-46.4132 99,-36.4133 95.5001,-46.4133 102.5001,-46.4132"/>
</g>
</g>
</svg>
